# xmcd
#
# Track frame offsets:
#	150
#	5216
#	17582
#	32125
#	45461
#	59011
#	70815
#	87007
#	103615
#
# Disc length: 1458 seconds
#
# Revision: 1
# Processed by: cddbd v1.5.2PL0 Copyright (c) Steve Scherf et al.
# Submitted via: EasyCDDAExtractor 5.0.6
#
DISCID=6f05b009
DTITLE=Black Milk - Popular Demand [CD2] (Broken Wax_ The Instrumentals)
DYEAR=2007
DGENRE=Hip-Hop
TTITLE0=Broken Wax (Instrumental)
TTITLE1=Pressure (Instrumental)
TTITLE2=Keep It Live (Feat. Mr. Porter)
TTITLE3=U's A Freak Bitch (Instrumental)
TTITLE4=Home Of The Greats
TTITLE5=Tell 'Em (Feat. NameTag)
TTITLE6=Danger (Instrumental)
TTITLE7=Sound Of The City (Instrumental)
TTITLE8=Outro (Instrumental)
EXTD=
EXTT0=
EXTT1=
EXTT2=
EXTT3=
EXTT4=
EXTT5=
EXTT6=
EXTT7=
EXTT8=
PLAYORDER=
